<?xml version="1.0" encoding="utf-8"?>
<!-- Generator: Adobe Illustrator 22.1.0, SVG Export Plug-In . SVG Version: 6.00 Build 0)  -->
<svg version="1.1"
	 id="svg4169" inkscape:version="0.92.1 r15371" sodipodi:docname="zeno-logo-typo-large.svg" xmlns:cc="http://creativecommons.org/ns#" xmlns:dc="http://purl.org/dc/elements/1.1/" xmlns:inkscape="http://www.inkscape.org/namespaces/inkscape" xmlns:rdf="http://www.w3.org/1999/02/22-rdf-syntax-ns#" xmlns:sodipodi="http://sodipodi.sourceforge.net/DTD/sodipodi-0.dtd" xmlns:svg="http://www.w3.org/2000/svg"
	 xmlns="http://www.w3.org/2000/svg" xmlns:xlink="http://www.w3.org/1999/xlink" x="0px" y="0px" viewBox="0 0 209.8 58"
	 style="enable-background:new 0 0 209.8 58;" xml:space="preserve">
<style type="text/css">
	.st0{fill:#AEB4B5;}
	.st1{fill:#FFFFFF;}
	.st2{fill:#FFFFFF;}
</style>
<sodipodi:namedview  bordercolor="#666666" borderopacity="1" gridtolerance="10" guidetolerance="10" id="namedview10" inkscape:current-layer="g15" inkscape:cx="72.098607" inkscape:cy="-0.76271186" inkscape:pageopacity="0" inkscape:pageshadow="2" inkscape:window-height="1016" inkscape:window-maximized="1" inkscape:window-width="1920" inkscape:window-x="1920" inkscape:window-y="27" inkscape:zoom="4.6354778" objecttolerance="10" pagecolor="#ffffff" showgrid="false" viewbox-width="180">
	</sodipodi:namedview>
<g>
	<g>
		<g>
			<g>
				<path class="st0" d="M28.1,56C13.4,56,1.5,44,1.5,29.3c0-14.7,11.9-26.6,26.6-26.6c14.7,0,26.6,12,26.6,26.6
					C54.8,44,42.8,56,28.1,56z M28.1,13.2c-8.9,0-16.2,7.2-16.2,16.2c0,8.9,7.2,16.2,16.2,16.2c8.9,0,16.2-7.2,16.2-16.2
					C44.3,20.4,37.1,13.2,28.1,13.2z"/>
				<g>
					<g>
						<g>
							<path class="st1" d="M28.1,56.2c-14.8,0-26.8-12-26.8-26.8C1.3,18.7,7.7,9,17.5,4.8c2.7-1.2,5.9,0.1,7.1,2.8
								c1.2,2.7-0.1,5.9-2.8,7.1C15.8,17.2,12,23,12,29.4c0,8.8,7.2,16,16.1,16c6.4,0,12.2-3.8,14.7-9.7c1.2-2.7,4.3-4,7.1-2.8
								c2.7,1.2,4,4.3,2.8,7.1C48.4,49.8,38.8,56.2,28.1,56.2z"/>
						</g>
					</g>
				</g>
			</g>
		</g>
	</g>
	<g>
		<rect x="174.5" y="23.8" class="st2" width="4.5" height="27"/>
		<path class="st2" d="M141.2,23.9c-3.4,0-6.6,1.3-9,3.5V8.1h-4.5v29.5h0c0.1,7.3,6.1,13.2,13.4,13.2c7.4,0,13.4-6,13.4-13.4
			S148.6,23.9,141.2,23.9z M141.2,46.3c-4.9,0-9-4-9-9s4-9,9-9s9,4,9,9S146.1,46.3,141.2,46.3z"/>
		<path class="st2" d="M170.4,23.8c-6.9,0-12.6,5.7-12.6,12.7v14.2h4.5V36.6c0-4.5,3.6-8.2,8.1-8.2c0.2,0,0.6,0,0.8,0l0-4.6
			C170.8,23.8,170.7,23.8,170.4,23.8z"/>
		<path class="st2" d="M124.3,35.7c-0.8-6.7-6.4-11.8-13.3-11.8c-7.1,0-12.9,5.6-13.3,12.5h0v0.4c0,0.1,0,0.3,0,0.4h0v13.6h4.5v-14
			c0.2-4.7,4.1-8.5,8.9-8.5c4.9,0,8.9,4,8.9,8.9v13.6h4.5L124.3,36L124.3,35.7z"/>
		<path class="st2" d="M176.8,13.6c-1.6,0-2.8,1.3-2.8,2.8c0,1.6,1.3,2.8,2.8,2.8c1.6,0,2.8-1.3,2.8-2.8
			C179.6,14.8,178.3,13.6,176.8,13.6z"/>
		<polygon class="st2" points="198.2,36 206.7,23.8 201.3,23.8 195.5,32.1 189.8,23.8 184.4,23.8 192.8,36 182.4,50.8 187.9,50.8
			195.5,39.9 203,50.8 208.5,50.8 		"/>
		<path class="st2" d="M81,23.9c-7.4,0-13.4,6-13.4,13.4s6,13.4,13.4,13.4c3.6,0,6.7-1.1,9.3-3.7l-2.7-3.6c-1.7,1.7-4.1,2.8-6.5,2.8
			c-4.4,0-8.1-3.2-8.8-7.4h22.2c0.1-0.5,0.1-1.1,0.1-1.6C94.4,29.9,88.4,23.9,81,23.9z M72.5,34.4c1.2-3.5,4.5-6.1,8.5-6.1
			c3.9,0,7.3,2.5,8.5,6.1H72.5z"/>
	</g>
</g>
</svg>
